<?xml version="1.0" encoding="iso-8859-1"?>
<!-- Generator: Adobe Illustrator 18.1.1, SVG Export Plug-In . SVG Version: 6.00 Build 0)  -->
<svg version="1.1" id="Capa_1" xmlns="http://www.w3.org/2000/svg" xmlns:xlink="http://www.w3.org/1999/xlink" x="0px" y="0px"
	 viewBox="0 0 480.145 480.145" style="enable-background:new 0 0 480.145 480.145;" xml:space="preserve">
<g>
	<path d="M390.05,368.69c-21.094,0-38.254-17.163-38.254-38.257c0-21.091,17.16-38.251,38.254-38.251
		c21.091,0,38.251,17.159,38.251,38.251C428.301,351.527,411.142,368.69,390.05,368.69z M390.05,299.252
		c-17.194,0-31.184,13.987-31.184,31.181c0,17.197,13.99,31.188,31.184,31.188c17.194,0,31.181-13.991,31.181-31.188
		C421.232,313.239,407.244,299.252,390.05,299.252z"/>
</g>
<g>
	<path d="M390.05,356.509c-14.377,0-26.072-11.699-26.072-26.076c0-14.374,11.695-26.069,26.072-26.069
		c14.374,0,26.069,11.695,26.069,26.069c0,0.977-0.791,1.767-1.768,1.767c-0.977,0-1.767-0.79-1.767-1.767
		c0-12.427-10.107-22.534-22.534-22.534c-12.427,0-22.537,10.107-22.537,22.534c0,12.43,10.11,22.54,22.537,22.54
		c0.977,0,1.768,0.791,1.768,1.768C391.818,355.718,391.027,356.509,390.05,356.509z"/>
</g>
<g>
	<path d="M93.066,368.69c-21.094,0-38.254-17.163-38.254-38.257c0-21.091,17.16-38.251,38.254-38.251
		c21.095,0,38.254,17.159,38.254,38.251C131.32,351.527,114.161,368.69,93.066,368.69z M93.066,299.252
		c-17.194,0-31.184,13.987-31.184,31.181c0,17.197,13.99,31.188,31.184,31.188c17.194,0,31.185-13.991,31.185-31.188
		C124.251,313.239,110.261,299.252,93.066,299.252z"/>
</g>
<g>
	<path d="M93.066,356.509c-14.377,0-26.072-11.699-26.072-26.076c0-14.374,11.695-26.069,26.072-26.069
		c0.977,0,1.768,0.79,1.768,1.768c0,0.977-0.79,1.767-1.768,1.767c-12.427,0-22.537,10.107-22.537,22.534
		c0,12.43,10.11,22.54,22.537,22.54c12.427,0,22.534-10.11,22.534-22.54c0-0.977,0.79-1.768,1.768-1.768
		c0.977,0,1.767,0.791,1.767,1.768C119.135,344.81,107.44,356.509,93.066,356.509z"/>
</g>
<g>
	<path d="M476.61,340.519h-40.004c-1.011,0-1.974-0.435-2.647-1.191c-0.669-0.759-0.984-1.768-0.859-2.772
		c0.245-2.005,0.407-4.042,0.407-6.123c0-23.963-19.493-43.456-43.456-43.456c-23.963,0-43.46,19.493-43.46,43.456
		c0,2.081,0.163,4.118,0.408,6.123c0.124,1.004-0.19,2.013-0.86,2.772c-0.673,0.756-1.636,1.191-2.647,1.191H139.626
		c-1.012,0-1.975-0.435-2.645-1.191c-0.673-0.756-0.987-1.764-0.866-2.768c0.245-2.005,0.407-4.046,0.407-6.127
		c0-23.963-19.493-43.456-43.456-43.456c-23.963,0-43.455,19.493-43.455,43.456c0,2.081,0.162,4.122,0.407,6.127
		c0.121,1.004-0.193,2.013-0.867,2.768c-0.669,0.759-1.632,1.191-2.644,1.191h-9.475C13.497,340.519,0,326.494,0,302.044V142.636
		c0-21.274,13.376-31.181,42.1-31.181h398.176c26.456,0,39.87,13.914,39.87,41.357V280.95c0,1.954-1.581,3.535-3.535,3.535h-11.706
		v25.685h11.706c1.954,0,3.535,1.581,3.535,3.535v23.28C480.145,338.938,478.564,340.519,476.61,340.519z M440.482,333.45h32.593
		v-16.21H461.37c-1.954,0-3.535-1.581-3.535-3.535V280.95c0-1.954,1.58-3.535,3.535-3.535h11.705V152.812
		c0-23.715-10.117-34.288-32.8-34.288H42.1c-30.788,0-35.03,11.588-35.03,24.112v159.408c0,14.326,5.199,31.406,29.963,31.406h5.602
		c-0.059-0.998-0.093-2.002-0.093-3.017c0-27.86,22.666-50.525,50.525-50.525c27.86,0,50.525,22.665,50.525,50.525
		c0,1.015-0.034,2.019-0.093,3.017h196.116c-0.059-0.998-0.093-2.002-0.093-3.017c0-27.86,22.669-50.525,50.529-50.525
		c27.86,0,50.525,22.665,50.525,50.525C440.576,331.448,440.542,332.452,440.482,333.45z"/>
</g>
<g>
	<path d="M436.606,340.519h-0.131c-1.954,0-3.535-1.581-3.535-3.535c0-1.954,1.581-3.535,3.535-3.535c1.954,0,3.6,1.581,3.6,3.535
		C440.075,338.938,438.56,340.519,436.606,340.519z"/>
</g>
<g>
	<path d="M343.626,340.519h-0.135c-1.954,0-3.535-1.581-3.535-3.535c0-1.954,1.581-3.535,3.535-3.535
		c1.954,0,3.604,1.581,3.604,3.535C347.095,338.938,345.58,340.519,343.626,340.519z"/>
</g>
<g>
	<path d="M433.827,258.847c-13.628,0-24.063-4.28-30.183-12.382c-13.766-18.226-12.099-38.337-12.023-39.186l-0.014-70.105
		c0-1.954,1.581-3.535,3.535-3.535h33.483c10.639,0,25.375,9.386,25.375,27.011v92.628c0,1.595-1.07,2.993-2.606,3.41
		C451.069,256.78,443.348,258.847,433.827,258.847z M398.677,140.71v66.894c-0.031,0.497-1.457,18.627,10.607,34.602
		c5.979,7.912,16.645,9.572,24.543,9.572c5.423,0,10.273-0.763,13.103-1.326v-89.801c0-13.01-10.632-19.941-18.305-19.941H398.677z"
		/>
</g>
<g>
	<path d="M381.317,233.521H54.488c-17.325,0-19.548-13.849-19.548-25.917v-66.425c0-1.954,1.581-3.535,3.535-3.535h342.842
		c1.954,0,3.535,1.581,3.535,3.535v88.807C384.852,231.94,383.271,233.521,381.317,233.521z M42.01,144.714v62.89
		c0,15.765,4.574,18.848,12.479,18.848h323.294v-81.738H42.01z"/>
</g>
<g>
	<path style="fill:none;stroke:#000000;stroke-linecap:round;stroke-linejoin:round;stroke-miterlimit:10;" d="M463.203,366.464"/>
</g>
<g>
	<path d="M293.967,231.754c-0.977,0-1.767-0.791-1.767-1.768v-88.807c0-0.977,0.791-1.767,1.767-1.767
		c0.977,0,1.768,0.79,1.768,1.767v88.807C295.734,230.963,294.944,231.754,293.967,231.754z"/>
</g>
<g>
	<path d="M206.62,231.754c-0.977,0-1.768-0.791-1.768-1.768v-88.807c0-0.977,0.79-1.767,1.768-1.767c0.977,0,1.768,0.79,1.768,1.767
		v88.807C208.388,230.963,207.597,231.754,206.62,231.754z"/>
</g>
<g>
	<path d="M119.27,231.754c-0.977,0-1.767-0.791-1.767-1.768v-88.807c0-0.977,0.79-1.767,1.767-1.767c0.977,0,1.767,0.79,1.767,1.767
		v88.807C121.037,230.963,120.247,231.754,119.27,231.754z"/>
</g>
<g>
</g>
<g>
</g>
<g>
</g>
<g>
</g>
<g>
</g>
<g>
</g>
<g>
</g>
<g>
</g>
<g>
</g>
<g>
</g>
<g>
</g>
<g>
</g>
<g>
</g>
<g>
</g>
<g>
</g>
</svg>
